<mxfile host="app.diagrams.net" modified="2021-08-15T15:53:58.423Z" agent="5.0 (Windows NT 10.0; Win64; x64) AppleWebKit/537.36 (KHTML, like Gecko) Chrome/92.0.4515.131 Safari/537.36" etag="2q3D0bkCBKa5htfbRv_8" version="14.9.6" type="github">
  <diagram id="R2lEEEUBdFMjLlhIrx00" name="Page-1">
    <mxGraphModel dx="2725" dy="1443" grid="1" gridSize="10" guides="1" tooltips="1" connect="1" arrows="1" fold="1" page="1" pageScale="1" pageWidth="1169" pageHeight="1654" math="0" shadow="0" extFonts="Permanent Marker^https://fonts.googleapis.com/css?family=Permanent+Marker">
      <root>
        <mxCell id="0" />
        <mxCell id="1" parent="0" />
        <mxCell id="FoN3IlztLSIXvxq9hLyi-2" value="User" style="whiteSpace=wrap;html=1;align=center;" vertex="1" parent="1">
          <mxGeometry x="180" y="270" width="90" height="40" as="geometry" />
        </mxCell>
        <mxCell id="FoN3IlztLSIXvxq9hLyi-3" value="User Personal Details" style="whiteSpace=wrap;html=1;align=center;" vertex="1" parent="1">
          <mxGeometry x="180" y="630" width="100" height="40" as="geometry" />
        </mxCell>
        <mxCell id="FoN3IlztLSIXvxq9hLyi-4" value="has" style="shape=rhombus;perimeter=rhombusPerimeter;whiteSpace=wrap;html=1;align=center;" vertex="1" parent="1">
          <mxGeometry x="170" y="430" width="120" height="60" as="geometry" />
        </mxCell>
        <mxCell id="FoN3IlztLSIXvxq9hLyi-5" value="" style="edgeStyle=entityRelationEdgeStyle;fontSize=12;html=1;endArrow=ERmandOne;startArrow=ERmandOne;entryX=0.5;entryY=1;entryDx=0;entryDy=0;exitX=0.5;exitY=0;exitDx=0;exitDy=0;" edge="1" parent="1" source="FoN3IlztLSIXvxq9hLyi-4" target="FoN3IlztLSIXvxq9hLyi-2">
          <mxGeometry width="100" height="100" relative="1" as="geometry">
            <mxPoint x="220" y="470" as="sourcePoint" />
            <mxPoint x="320" y="370" as="targetPoint" />
          </mxGeometry>
        </mxCell>
        <mxCell id="FoN3IlztLSIXvxq9hLyi-6" value="" style="edgeStyle=entityRelationEdgeStyle;fontSize=12;html=1;endArrow=ERmandOne;startArrow=ERmandOne;exitX=0.5;exitY=0;exitDx=0;exitDy=0;entryX=0.5;entryY=1;entryDx=0;entryDy=0;" edge="1" parent="1" source="FoN3IlztLSIXvxq9hLyi-3" target="FoN3IlztLSIXvxq9hLyi-4">
          <mxGeometry width="100" height="100" relative="1" as="geometry">
            <mxPoint x="370" y="530" as="sourcePoint" />
            <mxPoint x="470" y="430" as="targetPoint" />
          </mxGeometry>
        </mxCell>
        <mxCell id="FoN3IlztLSIXvxq9hLyi-7" value="user_id" style="ellipse;whiteSpace=wrap;html=1;align=center;fontStyle=4;" vertex="1" parent="1">
          <mxGeometry x="30" y="180" width="100" height="40" as="geometry" />
        </mxCell>
        <mxCell id="FoN3IlztLSIXvxq9hLyi-8" value="password" style="ellipse;whiteSpace=wrap;html=1;align=center;" vertex="1" parent="1">
          <mxGeometry x="120" y="140" width="100" height="40" as="geometry" />
        </mxCell>
        <mxCell id="FoN3IlztLSIXvxq9hLyi-9" value="user_personal_id" style="ellipse;whiteSpace=wrap;html=1;align=center;fontStyle=4;" vertex="1" parent="1">
          <mxGeometry x="20" y="590" width="100" height="40" as="geometry" />
        </mxCell>
        <mxCell id="FoN3IlztLSIXvxq9hLyi-10" value="user_name" style="ellipse;whiteSpace=wrap;html=1;align=center;" vertex="1" parent="1">
          <mxGeometry x="230" y="110" width="100" height="40" as="geometry" />
        </mxCell>
        <mxCell id="FoN3IlztLSIXvxq9hLyi-11" value="user_email" style="ellipse;whiteSpace=wrap;html=1;align=center;" vertex="1" parent="1">
          <mxGeometry x="20" y="250" width="100" height="40" as="geometry" />
        </mxCell>
        <mxCell id="FoN3IlztLSIXvxq9hLyi-12" value="" style="endArrow=none;html=1;rounded=0;exitX=0.5;exitY=0;exitDx=0;exitDy=0;" edge="1" parent="1" source="FoN3IlztLSIXvxq9hLyi-2" target="FoN3IlztLSIXvxq9hLyi-10">
          <mxGeometry relative="1" as="geometry">
            <mxPoint x="340" y="480" as="sourcePoint" />
            <mxPoint x="500" y="480" as="targetPoint" />
          </mxGeometry>
        </mxCell>
        <mxCell id="FoN3IlztLSIXvxq9hLyi-13" value="" style="endArrow=none;html=1;exitX=0.43;exitY=-0.075;exitDx=0;exitDy=0;exitPerimeter=0;" edge="1" parent="1" source="FoN3IlztLSIXvxq9hLyi-2">
          <mxGeometry width="50" height="50" relative="1" as="geometry">
            <mxPoint x="120" y="230" as="sourcePoint" />
            <mxPoint x="170" y="180" as="targetPoint" />
          </mxGeometry>
        </mxCell>
        <mxCell id="FoN3IlztLSIXvxq9hLyi-14" value="" style="endArrow=none;html=1;entryX=1;entryY=1;entryDx=0;entryDy=0;" edge="1" parent="1" target="FoN3IlztLSIXvxq9hLyi-7">
          <mxGeometry width="50" height="50" relative="1" as="geometry">
            <mxPoint x="220" y="270" as="sourcePoint" />
            <mxPoint x="180" y="190" as="targetPoint" />
          </mxGeometry>
        </mxCell>
        <mxCell id="FoN3IlztLSIXvxq9hLyi-15" value="" style="endArrow=none;html=1;entryX=1;entryY=0.5;entryDx=0;entryDy=0;" edge="1" parent="1" target="FoN3IlztLSIXvxq9hLyi-11">
          <mxGeometry width="50" height="50" relative="1" as="geometry">
            <mxPoint x="180" y="287" as="sourcePoint" />
            <mxPoint x="125.35533905932743" y="224.14213562373095" as="targetPoint" />
          </mxGeometry>
        </mxCell>
        <mxCell id="FoN3IlztLSIXvxq9hLyi-18" value="birth_day" style="ellipse;whiteSpace=wrap;html=1;align=center;" vertex="1" parent="1">
          <mxGeometry x="20" y="480" width="100" height="40" as="geometry" />
        </mxCell>
        <mxCell id="FoN3IlztLSIXvxq9hLyi-20" value="mobile" style="ellipse;shape=doubleEllipse;margin=3;whiteSpace=wrap;html=1;align=center;" vertex="1" parent="1">
          <mxGeometry x="20" y="540" width="100" height="40" as="geometry" />
        </mxCell>
        <mxCell id="FoN3IlztLSIXvxq9hLyi-21" value="user_address" style="ellipse;shape=doubleEllipse;margin=3;whiteSpace=wrap;html=1;align=center;" vertex="1" parent="1">
          <mxGeometry x="20" y="650" width="100" height="40" as="geometry" />
        </mxCell>
        <mxCell id="FoN3IlztLSIXvxq9hLyi-22" value="" style="endArrow=none;html=1;exitX=0;exitY=0.5;exitDx=0;exitDy=0;entryX=1;entryY=0.5;entryDx=0;entryDy=0;" edge="1" parent="1" source="FoN3IlztLSIXvxq9hLyi-3" target="FoN3IlztLSIXvxq9hLyi-18">
          <mxGeometry width="50" height="50" relative="1" as="geometry">
            <mxPoint x="400" y="510" as="sourcePoint" />
            <mxPoint x="450" y="460" as="targetPoint" />
          </mxGeometry>
        </mxCell>
        <mxCell id="FoN3IlztLSIXvxq9hLyi-23" value="" style="endArrow=none;html=1;entryX=1.02;entryY=0.35;entryDx=0;entryDy=0;entryPerimeter=0;" edge="1" parent="1" target="FoN3IlztLSIXvxq9hLyi-20">
          <mxGeometry width="50" height="50" relative="1" as="geometry">
            <mxPoint x="180" y="650" as="sourcePoint" />
            <mxPoint x="130" y="510" as="targetPoint" />
          </mxGeometry>
        </mxCell>
        <mxCell id="FoN3IlztLSIXvxq9hLyi-24" value="" style="endArrow=none;html=1;exitX=0;exitY=0.5;exitDx=0;exitDy=0;entryX=1;entryY=0.25;entryDx=0;entryDy=0;entryPerimeter=0;" edge="1" parent="1" source="FoN3IlztLSIXvxq9hLyi-3" target="FoN3IlztLSIXvxq9hLyi-9">
          <mxGeometry width="50" height="50" relative="1" as="geometry">
            <mxPoint x="200" y="670" as="sourcePoint" />
            <mxPoint x="140" y="520" as="targetPoint" />
          </mxGeometry>
        </mxCell>
        <mxCell id="FoN3IlztLSIXvxq9hLyi-25" value="" style="endArrow=none;html=1;exitX=0;exitY=0.5;exitDx=0;exitDy=0;entryX=1;entryY=0.5;entryDx=0;entryDy=0;" edge="1" parent="1" source="FoN3IlztLSIXvxq9hLyi-3" target="FoN3IlztLSIXvxq9hLyi-21">
          <mxGeometry width="50" height="50" relative="1" as="geometry">
            <mxPoint x="210" y="680" as="sourcePoint" />
            <mxPoint x="150" y="530" as="targetPoint" />
          </mxGeometry>
        </mxCell>
        <mxCell id="FoN3IlztLSIXvxq9hLyi-27" value="Package" style="whiteSpace=wrap;html=1;align=center;" vertex="1" parent="1">
          <mxGeometry x="780" y="210" width="100" height="40" as="geometry" />
        </mxCell>
        <mxCell id="FoN3IlztLSIXvxq9hLyi-29" value="select" style="shape=rhombus;perimeter=rhombusPerimeter;whiteSpace=wrap;html=1;align=center;" vertex="1" parent="1">
          <mxGeometry x="410" y="260" width="120" height="60" as="geometry" />
        </mxCell>
        <mxCell id="FoN3IlztLSIXvxq9hLyi-30" value="" style="edgeStyle=entityRelationEdgeStyle;fontSize=12;html=1;endArrow=ERzeroToMany;endFill=1;entryX=0;entryY=0.5;entryDx=0;entryDy=0;" edge="1" parent="1" target="FoN3IlztLSIXvxq9hLyi-27">
          <mxGeometry width="100" height="100" relative="1" as="geometry">
            <mxPoint x="530" y="290" as="sourcePoint" />
            <mxPoint x="470" y="430" as="targetPoint" />
          </mxGeometry>
        </mxCell>
        <mxCell id="FoN3IlztLSIXvxq9hLyi-33" value="" style="endArrow=none;html=1;rounded=0;entryX=0;entryY=0.5;entryDx=0;entryDy=0;" edge="1" parent="1" target="FoN3IlztLSIXvxq9hLyi-29">
          <mxGeometry relative="1" as="geometry">
            <mxPoint x="270" y="289.5" as="sourcePoint" />
            <mxPoint x="400" y="290" as="targetPoint" />
          </mxGeometry>
        </mxCell>
        <mxCell id="FoN3IlztLSIXvxq9hLyi-34" value="Tour" style="whiteSpace=wrap;html=1;align=center;" vertex="1" parent="1">
          <mxGeometry x="820" y="610" width="100" height="40" as="geometry" />
        </mxCell>
        <mxCell id="FoN3IlztLSIXvxq9hLyi-35" value="" style="edgeStyle=entityRelationEdgeStyle;fontSize=12;html=1;endArrow=ERoneToMany;exitX=1;exitY=0.5;exitDx=0;exitDy=0;startArrow=none;entryX=0;entryY=0.75;entryDx=0;entryDy=0;" edge="1" parent="1" source="FoN3IlztLSIXvxq9hLyi-36" target="FoN3IlztLSIXvxq9hLyi-34">
          <mxGeometry width="100" height="100" relative="1" as="geometry">
            <mxPoint x="330" y="529.5" as="sourcePoint" />
            <mxPoint x="470" y="529.5" as="targetPoint" />
          </mxGeometry>
        </mxCell>
        <mxCell id="FoN3IlztLSIXvxq9hLyi-36" value="has" style="shape=rhombus;perimeter=rhombusPerimeter;whiteSpace=wrap;html=1;align=center;rotation=0;" vertex="1" parent="1">
          <mxGeometry x="390" y="370" width="120" height="60" as="geometry" />
        </mxCell>
        <mxCell id="FoN3IlztLSIXvxq9hLyi-37" value="" style="edgeStyle=entityRelationEdgeStyle;fontSize=12;html=1;endArrow=none;exitX=0.933;exitY=1;exitDx=0;exitDy=0;exitPerimeter=0;" edge="1" parent="1" source="FoN3IlztLSIXvxq9hLyi-2" target="FoN3IlztLSIXvxq9hLyi-36">
          <mxGeometry width="100" height="100" relative="1" as="geometry">
            <mxPoint x="263.97" y="310" as="sourcePoint" />
            <mxPoint x="470" y="529.5" as="targetPoint" />
          </mxGeometry>
        </mxCell>
        <mxCell id="FoN3IlztLSIXvxq9hLyi-38" value="" style="edgeStyle=entityRelationEdgeStyle;fontSize=12;html=1;endArrow=ERoneToMany;exitX=0.5;exitY=1;exitDx=0;exitDy=0;startArrow=none;entryX=0;entryY=0.25;entryDx=0;entryDy=0;" edge="1" parent="1" source="FoN3IlztLSIXvxq9hLyi-39" target="FoN3IlztLSIXvxq9hLyi-34">
          <mxGeometry width="100" height="100" relative="1" as="geometry">
            <mxPoint x="370" y="630" as="sourcePoint" />
            <mxPoint x="810" y="620" as="targetPoint" />
          </mxGeometry>
        </mxCell>
        <mxCell id="FoN3IlztLSIXvxq9hLyi-39" value="has" style="shape=rhombus;perimeter=rhombusPerimeter;whiteSpace=wrap;html=1;align=center;" vertex="1" parent="1">
          <mxGeometry x="560" y="380" width="120" height="60" as="geometry" />
        </mxCell>
        <mxCell id="FoN3IlztLSIXvxq9hLyi-40" value="" style="edgeStyle=entityRelationEdgeStyle;fontSize=12;html=1;endArrow=none;exitX=0.5;exitY=1;exitDx=0;exitDy=0;entryX=0.5;entryY=0;entryDx=0;entryDy=0;" edge="1" parent="1" source="FoN3IlztLSIXvxq9hLyi-27" target="FoN3IlztLSIXvxq9hLyi-39">
          <mxGeometry width="100" height="100" relative="1" as="geometry">
            <mxPoint x="680" y="310" as="sourcePoint" />
            <mxPoint x="570" y="510" as="targetPoint" />
          </mxGeometry>
        </mxCell>
        <mxCell id="FoN3IlztLSIXvxq9hLyi-41" value="tour_duration" style="ellipse;whiteSpace=wrap;html=1;align=center;" vertex="1" parent="1">
          <mxGeometry x="770" y="720" width="100" height="40" as="geometry" />
        </mxCell>
        <mxCell id="FoN3IlztLSIXvxq9hLyi-42" value="tour_id" style="ellipse;whiteSpace=wrap;html=1;align=center;fontStyle=4;" vertex="1" parent="1">
          <mxGeometry x="860" y="740" width="100" height="40" as="geometry" />
        </mxCell>
        <mxCell id="FoN3IlztLSIXvxq9hLyi-43" value="description" style="ellipse;whiteSpace=wrap;html=1;align=center;" vertex="1" parent="1">
          <mxGeometry x="820" y="500" width="100" height="40" as="geometry" />
        </mxCell>
        <mxCell id="FoN3IlztLSIXvxq9hLyi-44" value="start_date" style="ellipse;whiteSpace=wrap;html=1;align=center;" vertex="1" parent="1">
          <mxGeometry x="910" y="660" width="100" height="40" as="geometry" />
        </mxCell>
        <mxCell id="FoN3IlztLSIXvxq9hLyi-45" value="end_date" style="ellipse;whiteSpace=wrap;html=1;align=center;" vertex="1" parent="1">
          <mxGeometry x="1000" y="630" width="100" height="40" as="geometry" />
        </mxCell>
        <mxCell id="FoN3IlztLSIXvxq9hLyi-46" value="" style="endArrow=none;html=1;rounded=0;entryX=0.25;entryY=1;entryDx=0;entryDy=0;exitX=0.5;exitY=0;exitDx=0;exitDy=0;" edge="1" parent="1" source="FoN3IlztLSIXvxq9hLyi-41" target="FoN3IlztLSIXvxq9hLyi-34">
          <mxGeometry relative="1" as="geometry">
            <mxPoint x="340" y="580" as="sourcePoint" />
            <mxPoint x="500" y="580" as="targetPoint" />
          </mxGeometry>
        </mxCell>
        <mxCell id="FoN3IlztLSIXvxq9hLyi-47" value="" style="endArrow=none;html=1;rounded=0;entryX=0.5;entryY=1;entryDx=0;entryDy=0;exitX=0.5;exitY=0;exitDx=0;exitDy=0;" edge="1" parent="1" source="FoN3IlztLSIXvxq9hLyi-42" target="FoN3IlztLSIXvxq9hLyi-34">
          <mxGeometry relative="1" as="geometry">
            <mxPoint x="510" y="620" as="sourcePoint" />
            <mxPoint x="505" y="560" as="targetPoint" />
          </mxGeometry>
        </mxCell>
        <mxCell id="FoN3IlztLSIXvxq9hLyi-49" value="" style="endArrow=none;html=1;rounded=0;exitX=1;exitY=0.75;exitDx=0;exitDy=0;entryX=0.421;entryY=-0.114;entryDx=0;entryDy=0;entryPerimeter=0;" edge="1" parent="1" source="FoN3IlztLSIXvxq9hLyi-34" target="FoN3IlztLSIXvxq9hLyi-44">
          <mxGeometry relative="1" as="geometry">
            <mxPoint x="340" y="580" as="sourcePoint" />
            <mxPoint x="630" y="590" as="targetPoint" />
          </mxGeometry>
        </mxCell>
        <mxCell id="FoN3IlztLSIXvxq9hLyi-50" value="" style="endArrow=none;html=1;rounded=0;exitX=1;exitY=0.75;exitDx=0;exitDy=0;entryX=0;entryY=0.5;entryDx=0;entryDy=0;" edge="1" parent="1" source="FoN3IlztLSIXvxq9hLyi-34" target="FoN3IlztLSIXvxq9hLyi-45">
          <mxGeometry relative="1" as="geometry">
            <mxPoint x="580" y="550" as="sourcePoint" />
            <mxPoint x="640" y="600" as="targetPoint" />
          </mxGeometry>
        </mxCell>
        <mxCell id="FoN3IlztLSIXvxq9hLyi-51" value="package_id" style="ellipse;whiteSpace=wrap;html=1;align=center;fontStyle=4;" vertex="1" parent="1">
          <mxGeometry x="670" y="120" width="100" height="30" as="geometry" />
        </mxCell>
        <mxCell id="FoN3IlztLSIXvxq9hLyi-52" value="pacakege_name" style="ellipse;whiteSpace=wrap;html=1;align=center;" vertex="1" parent="1">
          <mxGeometry x="770" y="90" width="100" height="40" as="geometry" />
        </mxCell>
        <mxCell id="FoN3IlztLSIXvxq9hLyi-54" value="charge_per_person" style="ellipse;whiteSpace=wrap;html=1;align=center;" vertex="1" parent="1">
          <mxGeometry x="900" y="90" width="100" height="40" as="geometry" />
        </mxCell>
        <mxCell id="FoN3IlztLSIXvxq9hLyi-55" value="" style="endArrow=none;html=1;rounded=0;entryX=0.59;entryY=-0.025;entryDx=0;entryDy=0;entryPerimeter=0;exitX=0.44;exitY=1.1;exitDx=0;exitDy=0;exitPerimeter=0;" edge="1" parent="1" source="FoN3IlztLSIXvxq9hLyi-51" target="FoN3IlztLSIXvxq9hLyi-27">
          <mxGeometry relative="1" as="geometry">
            <mxPoint x="550" y="240" as="sourcePoint" />
            <mxPoint x="710" y="240" as="targetPoint" />
          </mxGeometry>
        </mxCell>
        <mxCell id="FoN3IlztLSIXvxq9hLyi-56" value="" style="endArrow=none;html=1;rounded=0;exitX=0.41;exitY=1.025;exitDx=0;exitDy=0;exitPerimeter=0;entryX=0.599;entryY=0.025;entryDx=0;entryDy=0;entryPerimeter=0;" edge="1" parent="1" source="FoN3IlztLSIXvxq9hLyi-52" target="FoN3IlztLSIXvxq9hLyi-27">
          <mxGeometry relative="1" as="geometry">
            <mxPoint x="614" y="223" as="sourcePoint" />
            <mxPoint x="690" y="270" as="targetPoint" />
          </mxGeometry>
        </mxCell>
        <mxCell id="FoN3IlztLSIXvxq9hLyi-57" value="" style="endArrow=none;html=1;rounded=0;exitX=0.26;exitY=1;exitDx=0;exitDy=0;exitPerimeter=0;entryX=0.599;entryY=-0.002;entryDx=0;entryDy=0;entryPerimeter=0;" edge="1" parent="1" source="FoN3IlztLSIXvxq9hLyi-54" target="FoN3IlztLSIXvxq9hLyi-27">
          <mxGeometry relative="1" as="geometry">
            <mxPoint x="711" y="201" as="sourcePoint" />
            <mxPoint x="690" y="270" as="targetPoint" />
          </mxGeometry>
        </mxCell>
        <mxCell id="FoN3IlztLSIXvxq9hLyi-58" value="age" style="ellipse;whiteSpace=wrap;html=1;align=center;" vertex="1" parent="1">
          <mxGeometry x="20" y="710" width="100" height="40" as="geometry" />
        </mxCell>
        <mxCell id="FoN3IlztLSIXvxq9hLyi-59" value="gender" style="ellipse;whiteSpace=wrap;html=1;align=center;" vertex="1" parent="1">
          <mxGeometry x="20" y="770" width="100" height="40" as="geometry" />
        </mxCell>
        <mxCell id="FoN3IlztLSIXvxq9hLyi-60" value="citizenship" style="ellipse;whiteSpace=wrap;html=1;align=center;" vertex="1" parent="1">
          <mxGeometry x="60" y="810" width="100" height="40" as="geometry" />
        </mxCell>
        <mxCell id="FoN3IlztLSIXvxq9hLyi-61" value="insuarance_policy_no" style="ellipse;whiteSpace=wrap;html=1;align=center;" vertex="1" parent="1">
          <mxGeometry x="95" y="850" width="125" height="50" as="geometry" />
        </mxCell>
        <mxCell id="FoN3IlztLSIXvxq9hLyi-62" value="insuarance_company_name" style="ellipse;whiteSpace=wrap;html=1;align=center;" vertex="1" parent="1">
          <mxGeometry x="190" y="890" width="160" height="50" as="geometry" />
        </mxCell>
        <mxCell id="FoN3IlztLSIXvxq9hLyi-63" value="emg_contact" style="ellipse;whiteSpace=wrap;html=1;align=center;" vertex="1" parent="1">
          <mxGeometry x="270" y="820" width="100" height="40" as="geometry" />
        </mxCell>
        <mxCell id="FoN3IlztLSIXvxq9hLyi-64" value="" style="endArrow=none;html=1;rounded=0;entryX=0.42;entryY=1.075;entryDx=0;entryDy=0;entryPerimeter=0;" edge="1" parent="1" target="FoN3IlztLSIXvxq9hLyi-3">
          <mxGeometry relative="1" as="geometry">
            <mxPoint x="120" y="729.5" as="sourcePoint" />
            <mxPoint x="280" y="729.5" as="targetPoint" />
          </mxGeometry>
        </mxCell>
        <mxCell id="FoN3IlztLSIXvxq9hLyi-65" value="" style="endArrow=none;html=1;rounded=0;entryX=0.5;entryY=1;entryDx=0;entryDy=0;exitX=0.97;exitY=0.325;exitDx=0;exitDy=0;exitPerimeter=0;" edge="1" parent="1" source="FoN3IlztLSIXvxq9hLyi-59" target="FoN3IlztLSIXvxq9hLyi-3">
          <mxGeometry relative="1" as="geometry">
            <mxPoint x="130" y="739.5" as="sourcePoint" />
            <mxPoint x="232" y="683" as="targetPoint" />
          </mxGeometry>
        </mxCell>
        <mxCell id="FoN3IlztLSIXvxq9hLyi-66" value="" style="endArrow=none;html=1;rounded=0;entryX=0.5;entryY=1;entryDx=0;entryDy=0;" edge="1" parent="1" source="FoN3IlztLSIXvxq9hLyi-60" target="FoN3IlztLSIXvxq9hLyi-3">
          <mxGeometry relative="1" as="geometry">
            <mxPoint x="127" y="793" as="sourcePoint" />
            <mxPoint x="240" y="680" as="targetPoint" />
          </mxGeometry>
        </mxCell>
        <mxCell id="FoN3IlztLSIXvxq9hLyi-67" value="" style="endArrow=none;html=1;rounded=0;entryX=0.5;entryY=1;entryDx=0;entryDy=0;exitX=0.792;exitY=0.02;exitDx=0;exitDy=0;exitPerimeter=0;" edge="1" parent="1" source="FoN3IlztLSIXvxq9hLyi-61" target="FoN3IlztLSIXvxq9hLyi-3">
          <mxGeometry relative="1" as="geometry">
            <mxPoint x="134.36739427831844" y="820.8434742955756" as="sourcePoint" />
            <mxPoint x="240" y="680" as="targetPoint" />
          </mxGeometry>
        </mxCell>
        <mxCell id="FoN3IlztLSIXvxq9hLyi-68" value="" style="endArrow=none;html=1;rounded=0;entryX=0.5;entryY=1;entryDx=0;entryDy=0;exitX=0.444;exitY=0.02;exitDx=0;exitDy=0;exitPerimeter=0;" edge="1" parent="1" source="FoN3IlztLSIXvxq9hLyi-62" target="FoN3IlztLSIXvxq9hLyi-3">
          <mxGeometry relative="1" as="geometry">
            <mxPoint x="260" y="880" as="sourcePoint" />
            <mxPoint x="240" y="680" as="targetPoint" />
          </mxGeometry>
        </mxCell>
        <mxCell id="FoN3IlztLSIXvxq9hLyi-69" value="" style="endArrow=none;html=1;rounded=0;entryX=0.5;entryY=1;entryDx=0;entryDy=0;" edge="1" parent="1" source="FoN3IlztLSIXvxq9hLyi-63" target="FoN3IlztLSIXvxq9hLyi-3">
          <mxGeometry relative="1" as="geometry">
            <mxPoint x="271.03999999999996" y="901" as="sourcePoint" />
            <mxPoint x="240" y="680" as="targetPoint" />
          </mxGeometry>
        </mxCell>
        <mxCell id="FoN3IlztLSIXvxq9hLyi-70" value="Pcr report" style="whiteSpace=wrap;html=1;align=center;" vertex="1" parent="1">
          <mxGeometry x="510" y="60" width="100" height="40" as="geometry" />
        </mxCell>
        <mxCell id="FoN3IlztLSIXvxq9hLyi-71" value="" style="edgeStyle=entityRelationEdgeStyle;fontSize=12;html=1;endArrow=ERmandOne;startArrow=none;exitX=1;exitY=0;exitDx=0;exitDy=0;entryX=0;entryY=0.75;entryDx=0;entryDy=0;" edge="1" parent="1" source="FoN3IlztLSIXvxq9hLyi-72" target="FoN3IlztLSIXvxq9hLyi-70">
          <mxGeometry width="100" height="100" relative="1" as="geometry">
            <mxPoint x="370" y="330" as="sourcePoint" />
            <mxPoint x="470" y="230" as="targetPoint" />
          </mxGeometry>
        </mxCell>
        <mxCell id="FoN3IlztLSIXvxq9hLyi-72" value="has" style="shape=rhombus;perimeter=rhombusPerimeter;whiteSpace=wrap;html=1;align=center;" vertex="1" parent="1">
          <mxGeometry x="330" y="150" width="120" height="60" as="geometry" />
        </mxCell>
        <mxCell id="FoN3IlztLSIXvxq9hLyi-73" value="" style="edgeStyle=entityRelationEdgeStyle;fontSize=12;html=1;endArrow=none;startArrow=ERmandOne;exitX=1;exitY=0;exitDx=0;exitDy=0;entryX=0;entryY=0.75;entryDx=0;entryDy=0;" edge="1" parent="1" source="FoN3IlztLSIXvxq9hLyi-2" target="FoN3IlztLSIXvxq9hLyi-72">
          <mxGeometry width="100" height="100" relative="1" as="geometry">
            <mxPoint x="270" y="270" as="sourcePoint" />
            <mxPoint x="510" y="90" as="targetPoint" />
          </mxGeometry>
        </mxCell>
        <mxCell id="FoN3IlztLSIXvxq9hLyi-74" value="report" style="ellipse;whiteSpace=wrap;html=1;align=center;" vertex="1" parent="1">
          <mxGeometry x="660" y="50" width="100" height="40" as="geometry" />
        </mxCell>
        <mxCell id="FoN3IlztLSIXvxq9hLyi-75" value="" style="endArrow=none;html=1;rounded=0;entryX=0;entryY=1;entryDx=0;entryDy=0;" edge="1" parent="1" source="FoN3IlztLSIXvxq9hLyi-70" target="FoN3IlztLSIXvxq9hLyi-74">
          <mxGeometry relative="1" as="geometry">
            <mxPoint x="340" y="280" as="sourcePoint" />
            <mxPoint x="500" y="280" as="targetPoint" />
          </mxGeometry>
        </mxCell>
        <mxCell id="FoN3IlztLSIXvxq9hLyi-76" value="Vaccinated" style="whiteSpace=wrap;html=1;align=center;" vertex="1" parent="1">
          <mxGeometry x="410" y="740" width="100" height="40" as="geometry" />
        </mxCell>
        <mxCell id="FoN3IlztLSIXvxq9hLyi-77" value="" style="edgeStyle=entityRelationEdgeStyle;fontSize=12;html=1;endArrow=ERzeroToOne;endFill=1;exitX=0;exitY=0;exitDx=0;exitDy=0;startArrow=none;" edge="1" parent="1" source="FoN3IlztLSIXvxq9hLyi-78">
          <mxGeometry width="100" height="100" relative="1" as="geometry">
            <mxPoint x="370" y="630" as="sourcePoint" />
            <mxPoint x="170" y="310" as="targetPoint" />
          </mxGeometry>
        </mxCell>
        <mxCell id="FoN3IlztLSIXvxq9hLyi-78" value="is" style="shape=rhombus;perimeter=rhombusPerimeter;whiteSpace=wrap;html=1;align=center;" vertex="1" parent="1">
          <mxGeometry x="290" y="670" width="120" height="60" as="geometry" />
        </mxCell>
        <mxCell id="FoN3IlztLSIXvxq9hLyi-79" value="" style="edgeStyle=entityRelationEdgeStyle;fontSize=12;html=1;endArrow=none;endFill=1;exitX=0;exitY=0;exitDx=0;exitDy=0;" edge="1" parent="1" source="FoN3IlztLSIXvxq9hLyi-76" target="FoN3IlztLSIXvxq9hLyi-78">
          <mxGeometry width="100" height="100" relative="1" as="geometry">
            <mxPoint x="410" y="740" as="sourcePoint" />
            <mxPoint x="170" y="310" as="targetPoint" />
          </mxGeometry>
        </mxCell>
        <mxCell id="FoN3IlztLSIXvxq9hLyi-80" value="vaccine_name" style="ellipse;whiteSpace=wrap;html=1;align=center;" vertex="1" parent="1">
          <mxGeometry x="370" y="810" width="100" height="40" as="geometry" />
        </mxCell>
        <mxCell id="FoN3IlztLSIXvxq9hLyi-81" value="vaccinated_date" style="ellipse;whiteSpace=wrap;html=1;align=center;" vertex="1" parent="1">
          <mxGeometry x="460" y="830" width="100" height="40" as="geometry" />
        </mxCell>
        <mxCell id="FoN3IlztLSIXvxq9hLyi-82" value="" style="endArrow=none;html=1;rounded=0;entryX=0.5;entryY=0;entryDx=0;entryDy=0;" edge="1" parent="1" target="FoN3IlztLSIXvxq9hLyi-80">
          <mxGeometry relative="1" as="geometry">
            <mxPoint x="460" y="780" as="sourcePoint" />
            <mxPoint x="500" y="580" as="targetPoint" />
          </mxGeometry>
        </mxCell>
        <mxCell id="FoN3IlztLSIXvxq9hLyi-83" value="" style="endArrow=none;html=1;rounded=0;" edge="1" parent="1" source="FoN3IlztLSIXvxq9hLyi-76" target="FoN3IlztLSIXvxq9hLyi-81">
          <mxGeometry relative="1" as="geometry">
            <mxPoint x="340" y="580" as="sourcePoint" />
            <mxPoint x="500" y="580" as="targetPoint" />
          </mxGeometry>
        </mxCell>
        <mxCell id="FoN3IlztLSIXvxq9hLyi-84" value="Group" style="whiteSpace=wrap;html=1;align=center;" vertex="1" parent="1">
          <mxGeometry x="1030" y="330" width="100" height="40" as="geometry" />
        </mxCell>
        <mxCell id="FoN3IlztLSIXvxq9hLyi-85" value="" style="edgeStyle=entityRelationEdgeStyle;fontSize=12;html=1;endArrow=ERoneToMany;exitX=0;exitY=0.5;exitDx=0;exitDy=0;startArrow=none;" edge="1" parent="1" source="FoN3IlztLSIXvxq9hLyi-86" target="FoN3IlztLSIXvxq9hLyi-2">
          <mxGeometry width="100" height="100" relative="1" as="geometry">
            <mxPoint x="370" y="530" as="sourcePoint" />
            <mxPoint x="470" y="430" as="targetPoint" />
          </mxGeometry>
        </mxCell>
        <mxCell id="FoN3IlztLSIXvxq9hLyi-86" value="has" style="shape=rhombus;perimeter=rhombusPerimeter;whiteSpace=wrap;html=1;align=center;" vertex="1" parent="1">
          <mxGeometry x="740" y="350" width="120" height="60" as="geometry" />
        </mxCell>
        <mxCell id="FoN3IlztLSIXvxq9hLyi-87" value="" style="edgeStyle=entityRelationEdgeStyle;fontSize=12;html=1;endArrow=none;exitX=0;exitY=0.5;exitDx=0;exitDy=0;" edge="1" parent="1" source="FoN3IlztLSIXvxq9hLyi-84" target="FoN3IlztLSIXvxq9hLyi-86">
          <mxGeometry width="100" height="100" relative="1" as="geometry">
            <mxPoint x="840" y="370" as="sourcePoint" />
            <mxPoint x="270" y="290" as="targetPoint" />
          </mxGeometry>
        </mxCell>
        <mxCell id="FoN3IlztLSIXvxq9hLyi-88" value="" style="edgeStyle=entityRelationEdgeStyle;fontSize=12;html=1;endArrow=ERoneToMany;entryX=1;entryY=0.5;entryDx=0;entryDy=0;exitX=1;exitY=0;exitDx=0;exitDy=0;startArrow=none;" edge="1" parent="1" source="FoN3IlztLSIXvxq9hLyi-89" target="FoN3IlztLSIXvxq9hLyi-84">
          <mxGeometry width="100" height="100" relative="1" as="geometry">
            <mxPoint x="370" y="430" as="sourcePoint" />
            <mxPoint x="470" y="330" as="targetPoint" />
          </mxGeometry>
        </mxCell>
        <mxCell id="FoN3IlztLSIXvxq9hLyi-89" value="has" style="shape=rhombus;perimeter=rhombusPerimeter;whiteSpace=wrap;html=1;align=center;" vertex="1" parent="1">
          <mxGeometry x="990" y="420" width="120" height="60" as="geometry" />
        </mxCell>
        <mxCell id="FoN3IlztLSIXvxq9hLyi-90" value="" style="edgeStyle=entityRelationEdgeStyle;fontSize=12;html=1;endArrow=none;entryX=0;entryY=1;entryDx=0;entryDy=0;exitX=1;exitY=0;exitDx=0;exitDy=0;" edge="1" parent="1" source="FoN3IlztLSIXvxq9hLyi-34" target="FoN3IlztLSIXvxq9hLyi-89">
          <mxGeometry width="100" height="100" relative="1" as="geometry">
            <mxPoint x="570" y="510" as="sourcePoint" />
            <mxPoint x="960" y="380" as="targetPoint" />
          </mxGeometry>
        </mxCell>
        <mxCell id="FoN3IlztLSIXvxq9hLyi-91" value="total_cost" style="ellipse;whiteSpace=wrap;html=1;align=center;" vertex="1" parent="1">
          <mxGeometry x="970" y="240" width="100" height="40" as="geometry" />
        </mxCell>
        <mxCell id="FoN3IlztLSIXvxq9hLyi-96" value="" style="endArrow=none;html=1;rounded=0;entryX=0.5;entryY=0;entryDx=0;entryDy=0;exitX=0.5;exitY=1;exitDx=0;exitDy=0;" edge="1" parent="1" source="FoN3IlztLSIXvxq9hLyi-91" target="FoN3IlztLSIXvxq9hLyi-84">
          <mxGeometry relative="1" as="geometry">
            <mxPoint x="340" y="380" as="sourcePoint" />
            <mxPoint x="500" y="380" as="targetPoint" />
          </mxGeometry>
        </mxCell>
        <mxCell id="FoN3IlztLSIXvxq9hLyi-97" value="" style="endArrow=none;html=1;rounded=0;exitX=0.5;exitY=1;exitDx=0;exitDy=0;" edge="1" parent="1" source="FoN3IlztLSIXvxq9hLyi-43">
          <mxGeometry relative="1" as="geometry">
            <mxPoint x="870" y="550" as="sourcePoint" />
            <mxPoint x="850" y="609.5" as="targetPoint" />
          </mxGeometry>
        </mxCell>
        <mxCell id="FoN3IlztLSIXvxq9hLyi-98" value="Pcr Samples" style="whiteSpace=wrap;html=1;align=center;" vertex="1" parent="1">
          <mxGeometry x="810" y="800" width="100" height="40" as="geometry" />
        </mxCell>
        <mxCell id="FoN3IlztLSIXvxq9hLyi-99" value="" style="edgeStyle=entityRelationEdgeStyle;fontSize=12;html=1;endArrow=ERmandOne;startArrow=none;exitX=1;exitY=0.75;exitDx=0;exitDy=0;entryX=0.5;entryY=0;entryDx=0;entryDy=0;" edge="1" parent="1" source="FoN3IlztLSIXvxq9hLyi-100" target="FoN3IlztLSIXvxq9hLyi-98">
          <mxGeometry width="100" height="100" relative="1" as="geometry">
            <mxPoint x="480" y="600" as="sourcePoint" />
            <mxPoint x="580" y="500" as="targetPoint" />
          </mxGeometry>
        </mxCell>
        <mxCell id="FoN3IlztLSIXvxq9hLyi-100" value="Has" style="shape=rhombus;perimeter=rhombusPerimeter;whiteSpace=wrap;html=1;align=center;" vertex="1" parent="1">
          <mxGeometry x="450" y="560" width="120" height="60" as="geometry" />
        </mxCell>
        <mxCell id="FoN3IlztLSIXvxq9hLyi-101" value="" style="edgeStyle=entityRelationEdgeStyle;fontSize=12;html=1;endArrow=none;startArrow=ERmandOne;exitX=1;exitY=0.75;exitDx=0;exitDy=0;entryX=0.5;entryY=0;entryDx=0;entryDy=0;" edge="1" parent="1" source="FoN3IlztLSIXvxq9hLyi-2" target="FoN3IlztLSIXvxq9hLyi-100">
          <mxGeometry width="100" height="100" relative="1" as="geometry">
            <mxPoint x="270" y="300" as="sourcePoint" />
            <mxPoint x="760" y="850" as="targetPoint" />
          </mxGeometry>
        </mxCell>
        <mxCell id="FoN3IlztLSIXvxq9hLyi-102" value="location" style="ellipse;whiteSpace=wrap;html=1;align=center;" vertex="1" parent="1">
          <mxGeometry x="850" y="860" width="100" height="40" as="geometry" />
        </mxCell>
        <mxCell id="FoN3IlztLSIXvxq9hLyi-103" value="collected_person_name" style="ellipse;whiteSpace=wrap;html=1;align=center;" vertex="1" parent="1">
          <mxGeometry x="930" y="800" width="180" height="40" as="geometry" />
        </mxCell>
        <mxCell id="FoN3IlztLSIXvxq9hLyi-104" value="" style="endArrow=none;html=1;rounded=0;exitX=1;exitY=0.75;exitDx=0;exitDy=0;" edge="1" parent="1" source="FoN3IlztLSIXvxq9hLyi-98" target="FoN3IlztLSIXvxq9hLyi-103">
          <mxGeometry relative="1" as="geometry">
            <mxPoint x="760" y="890" as="sourcePoint" />
            <mxPoint x="610" y="660" as="targetPoint" />
          </mxGeometry>
        </mxCell>
        <mxCell id="FoN3IlztLSIXvxq9hLyi-105" value="" style="endArrow=none;html=1;rounded=0;" edge="1" parent="1" source="FoN3IlztLSIXvxq9hLyi-98" target="FoN3IlztLSIXvxq9hLyi-102">
          <mxGeometry relative="1" as="geometry">
            <mxPoint x="450" y="660" as="sourcePoint" />
            <mxPoint x="610" y="660" as="targetPoint" />
          </mxGeometry>
        </mxCell>
        <mxCell id="FoN3IlztLSIXvxq9hLyi-106" value="Temperature" style="whiteSpace=wrap;html=1;align=center;" vertex="1" parent="1">
          <mxGeometry x="610" y="890" width="100" height="40" as="geometry" />
        </mxCell>
        <mxCell id="FoN3IlztLSIXvxq9hLyi-107" value="" style="edgeStyle=entityRelationEdgeStyle;fontSize=12;html=1;endArrow=ERoneToMany;entryX=0.5;entryY=0;entryDx=0;entryDy=0;startArrow=none;" edge="1" parent="1" source="FoN3IlztLSIXvxq9hLyi-108" target="FoN3IlztLSIXvxq9hLyi-106">
          <mxGeometry width="100" height="100" relative="1" as="geometry">
            <mxPoint x="250" y="310" as="sourcePoint" />
            <mxPoint x="580" y="610" as="targetPoint" />
          </mxGeometry>
        </mxCell>
        <mxCell id="FoN3IlztLSIXvxq9hLyi-108" value="has" style="shape=rhombus;perimeter=rhombusPerimeter;whiteSpace=wrap;html=1;align=center;" vertex="1" parent="1">
          <mxGeometry x="450" y="650" width="120" height="60" as="geometry" />
        </mxCell>
        <mxCell id="FoN3IlztLSIXvxq9hLyi-109" value="" style="edgeStyle=entityRelationEdgeStyle;fontSize=12;html=1;endArrow=none;entryX=0.5;entryY=0;entryDx=0;entryDy=0;" edge="1" parent="1" target="FoN3IlztLSIXvxq9hLyi-108">
          <mxGeometry width="100" height="100" relative="1" as="geometry">
            <mxPoint x="250" y="310" as="sourcePoint" />
            <mxPoint x="660" y="890" as="targetPoint" />
          </mxGeometry>
        </mxCell>
        <mxCell id="FoN3IlztLSIXvxq9hLyi-110" value="time" style="ellipse;whiteSpace=wrap;html=1;align=center;" vertex="1" parent="1">
          <mxGeometry x="550" y="960" width="100" height="40" as="geometry" />
        </mxCell>
        <mxCell id="FoN3IlztLSIXvxq9hLyi-111" value="temperature" style="ellipse;whiteSpace=wrap;html=1;align=center;" vertex="1" parent="1">
          <mxGeometry x="660" y="960" width="100" height="40" as="geometry" />
        </mxCell>
        <mxCell id="FoN3IlztLSIXvxq9hLyi-112" value="" style="endArrow=none;html=1;rounded=0;entryX=0.5;entryY=0;entryDx=0;entryDy=0;" edge="1" parent="1" source="FoN3IlztLSIXvxq9hLyi-106" target="FoN3IlztLSIXvxq9hLyi-110">
          <mxGeometry relative="1" as="geometry">
            <mxPoint x="450" y="770" as="sourcePoint" />
            <mxPoint x="610" y="770" as="targetPoint" />
          </mxGeometry>
        </mxCell>
        <mxCell id="FoN3IlztLSIXvxq9hLyi-113" value="" style="endArrow=none;html=1;rounded=0;entryX=0.5;entryY=0;entryDx=0;entryDy=0;" edge="1" parent="1" target="FoN3IlztLSIXvxq9hLyi-111">
          <mxGeometry relative="1" as="geometry">
            <mxPoint x="670" y="930" as="sourcePoint" />
            <mxPoint x="610" y="770" as="targetPoint" />
          </mxGeometry>
        </mxCell>
        <mxCell id="FoN3IlztLSIXvxq9hLyi-114" value="Driver" style="whiteSpace=wrap;html=1;align=center;" vertex="1" parent="1">
          <mxGeometry x="980" y="1220" width="100" height="40" as="geometry" />
        </mxCell>
        <mxCell id="FoN3IlztLSIXvxq9hLyi-124" value="Helper" style="whiteSpace=wrap;html=1;align=center;" vertex="1" parent="1">
          <mxGeometry x="670" y="1070" width="100" height="40" as="geometry" />
        </mxCell>
        <mxCell id="FoN3IlztLSIXvxq9hLyi-125" value="" style="edgeStyle=entityRelationEdgeStyle;fontSize=12;html=1;endArrow=ERmandOne;startArrow=none;entryX=1;entryY=0.25;entryDx=0;entryDy=0;exitX=0;exitY=0.5;exitDx=0;exitDy=0;" edge="1" parent="1" source="FoN3IlztLSIXvxq9hLyi-126" target="FoN3IlztLSIXvxq9hLyi-84">
          <mxGeometry width="100" height="100" relative="1" as="geometry">
            <mxPoint x="1060" y="877" as="sourcePoint" />
            <mxPoint x="1160" y="777" as="targetPoint" />
          </mxGeometry>
        </mxCell>
        <mxCell id="FoN3IlztLSIXvxq9hLyi-128" value="" style="edgeStyle=entityRelationEdgeStyle;fontSize=12;html=1;endArrow=ERoneToMany;startArrow=none;entryX=1;entryY=0.5;entryDx=0;entryDy=0;" edge="1" parent="1" source="FoN3IlztLSIXvxq9hLyi-129" target="FoN3IlztLSIXvxq9hLyi-124">
          <mxGeometry width="100" height="100" relative="1" as="geometry">
            <mxPoint x="1060" y="370" as="sourcePoint" />
            <mxPoint x="850" y="1130" as="targetPoint" />
          </mxGeometry>
        </mxCell>
        <mxCell id="FoN3IlztLSIXvxq9hLyi-129" value="has" style="shape=rhombus;perimeter=rhombusPerimeter;whiteSpace=wrap;html=1;align=center;" vertex="1" parent="1">
          <mxGeometry x="990" y="1070" width="120" height="60" as="geometry" />
        </mxCell>
        <mxCell id="FoN3IlztLSIXvxq9hLyi-130" value="" style="edgeStyle=entityRelationEdgeStyle;fontSize=12;html=1;endArrow=none;exitX=1;exitY=0.75;exitDx=0;exitDy=0;" edge="1" parent="1" source="FoN3IlztLSIXvxq9hLyi-84" target="FoN3IlztLSIXvxq9hLyi-129">
          <mxGeometry width="100" height="100" relative="1" as="geometry">
            <mxPoint x="1060" y="370" as="sourcePoint" />
            <mxPoint x="1390" y="370" as="targetPoint" />
          </mxGeometry>
        </mxCell>
        <mxCell id="FoN3IlztLSIXvxq9hLyi-131" value="name" style="ellipse;whiteSpace=wrap;html=1;align=center;" vertex="1" parent="1">
          <mxGeometry x="860" y="1300" width="100" height="40" as="geometry" />
        </mxCell>
        <mxCell id="FoN3IlztLSIXvxq9hLyi-133" value="contact" style="ellipse;shape=doubleEllipse;margin=3;whiteSpace=wrap;html=1;align=center;" vertex="1" parent="1">
          <mxGeometry x="1040" y="1370" width="100" height="40" as="geometry" />
        </mxCell>
        <mxCell id="FoN3IlztLSIXvxq9hLyi-134" value="address" style="ellipse;whiteSpace=wrap;html=1;align=center;" vertex="1" parent="1">
          <mxGeometry x="920" y="1390" width="100" height="30" as="geometry" />
        </mxCell>
        <mxCell id="FoN3IlztLSIXvxq9hLyi-135" value="contact" style="ellipse;shape=doubleEllipse;margin=3;whiteSpace=wrap;html=1;align=center;" vertex="1" parent="1">
          <mxGeometry x="710" y="1160" width="100" height="40" as="geometry" />
        </mxCell>
        <mxCell id="FoN3IlztLSIXvxq9hLyi-136" value="name" style="ellipse;whiteSpace=wrap;html=1;align=center;" vertex="1" parent="1">
          <mxGeometry x="590" y="1170" width="100" height="40" as="geometry" />
        </mxCell>
        <mxCell id="FoN3IlztLSIXvxq9hLyi-138" value="address" style="ellipse;whiteSpace=wrap;html=1;align=center;" vertex="1" parent="1">
          <mxGeometry x="530" y="1100" width="100" height="40" as="geometry" />
        </mxCell>
        <mxCell id="FoN3IlztLSIXvxq9hLyi-140" value="" style="endArrow=none;html=1;rounded=0;exitX=0;exitY=0.75;exitDx=0;exitDy=0;" edge="1" parent="1" source="FoN3IlztLSIXvxq9hLyi-124" target="FoN3IlztLSIXvxq9hLyi-136">
          <mxGeometry relative="1" as="geometry">
            <mxPoint x="780" y="1020" as="sourcePoint" />
            <mxPoint x="1520" y="320" as="targetPoint" />
          </mxGeometry>
        </mxCell>
        <mxCell id="FoN3IlztLSIXvxq9hLyi-141" value="" style="endArrow=none;html=1;rounded=0;exitX=0.75;exitY=1;exitDx=0;exitDy=0;entryX=0.588;entryY=-0.058;entryDx=0;entryDy=0;entryPerimeter=0;" edge="1" parent="1" source="FoN3IlztLSIXvxq9hLyi-124" target="FoN3IlztLSIXvxq9hLyi-135">
          <mxGeometry relative="1" as="geometry">
            <mxPoint x="1460" y="370" as="sourcePoint" />
            <mxPoint x="1530" y="330" as="targetPoint" />
          </mxGeometry>
        </mxCell>
        <mxCell id="FoN3IlztLSIXvxq9hLyi-142" value="" style="endArrow=none;html=1;rounded=0;entryX=0.088;entryY=0.178;entryDx=0;entryDy=0;entryPerimeter=0;exitX=0;exitY=1;exitDx=0;exitDy=0;" edge="1" parent="1" source="FoN3IlztLSIXvxq9hLyi-114" target="FoN3IlztLSIXvxq9hLyi-131">
          <mxGeometry relative="1" as="geometry">
            <mxPoint x="1380" y="89" as="sourcePoint" />
            <mxPoint x="1540" y="89" as="targetPoint" />
          </mxGeometry>
        </mxCell>
        <mxCell id="FoN3IlztLSIXvxq9hLyi-143" value="" style="endArrow=none;html=1;rounded=0;entryX=0.599;entryY=-0.04;entryDx=0;entryDy=0;entryPerimeter=0;" edge="1" parent="1" source="FoN3IlztLSIXvxq9hLyi-114" target="FoN3IlztLSIXvxq9hLyi-134">
          <mxGeometry relative="1" as="geometry">
            <mxPoint x="1510" y="140" as="sourcePoint" />
            <mxPoint x="1568.8000000000002" y="132.12" as="targetPoint" />
          </mxGeometry>
        </mxCell>
        <mxCell id="FoN3IlztLSIXvxq9hLyi-144" value="" style="endArrow=none;html=1;rounded=0;entryX=0.5;entryY=0;entryDx=0;entryDy=0;exitX=1;exitY=0.75;exitDx=0;exitDy=0;" edge="1" parent="1" source="FoN3IlztLSIXvxq9hLyi-114" target="FoN3IlztLSIXvxq9hLyi-133">
          <mxGeometry relative="1" as="geometry">
            <mxPoint x="1510" y="140" as="sourcePoint" />
            <mxPoint x="1568.8000000000002" y="132.12" as="targetPoint" />
          </mxGeometry>
        </mxCell>
        <mxCell id="FoN3IlztLSIXvxq9hLyi-147" value="" style="endArrow=none;html=1;rounded=0;exitX=1;exitY=0.5;exitDx=0;exitDy=0;entryX=0;entryY=0.75;entryDx=0;entryDy=0;" edge="1" parent="1" source="FoN3IlztLSIXvxq9hLyi-138" target="FoN3IlztLSIXvxq9hLyi-124">
          <mxGeometry relative="1" as="geometry">
            <mxPoint x="1230" y="1230" as="sourcePoint" />
            <mxPoint x="1390" y="1230" as="targetPoint" />
          </mxGeometry>
        </mxCell>
        <mxCell id="FoN3IlztLSIXvxq9hLyi-126" value="has" style="shape=rhombus;perimeter=rhombusPerimeter;whiteSpace=wrap;html=1;align=center;" vertex="1" parent="1">
          <mxGeometry x="970" y="920" width="120" height="60" as="geometry" />
        </mxCell>
        <mxCell id="FoN3IlztLSIXvxq9hLyi-148" value="" style="edgeStyle=entityRelationEdgeStyle;fontSize=12;html=1;endArrow=none;startArrow=ERmandOne;" edge="1" parent="1" target="FoN3IlztLSIXvxq9hLyi-126">
          <mxGeometry width="100" height="100" relative="1" as="geometry">
            <mxPoint x="1080" y="1240" as="sourcePoint" />
            <mxPoint x="1229" y="270" as="targetPoint" />
          </mxGeometry>
        </mxCell>
      </root>
    </mxGraphModel>
  </diagram>
</mxfile>
